    <svg xmlns="http://www.w3.org/2000/svg" xmlns:link="http://www.w3.org/1999/xlink">

      <symbol viewBox="0 0 24 24" id="close">
      <g data-name="Layer 2"><path d="M13.41 12l4.3-4.29a1 1 0 10-1.42-1.42L12 10.59l-4.29-4.3a1 1 0 00-1.42 1.42l4.3 4.29-4.3 4.29a1 1 0 000 1.42 1 1 0 001.42 0l4.29-4.3 4.29 4.3a1 1 0 001.42 0 1 1 0 000-1.42z" data-name="close"/></g>
      </symbol>

      <symbol viewBox="0 0 45 45" id="fb">
      <path d="M22.5 0C10.125 0 0 10.143 0 22.636 0 33.93 8.235 43.306 18.99 45V29.187h-5.715v-6.552h5.715v-4.992c0-5.67 3.353-8.788 8.505-8.788 2.453 0 5.018.43 5.018.43v5.58h-2.835c-2.79 0-3.668 1.739-3.668 3.524v4.247h6.255l-1.012 6.55H26.01V45a22.477 22.477 0 0013.612-7.658A22.644 22.644 0 0045 22.636C45 10.143 34.875 0 22.5 0z"/>
      </symbol>

      <symbol viewBox="0 0 45 45" id="in">
<path d="M18.117 22.5a4.307 4.307 0 108.613 0 4.307 4.307 0 00-8.613 0z"/><path d="M12.352 14.88c.207-.56.537-1.068.967-1.485a4 4 0 011.485-.967c.455-.177 1.14-.387 2.399-.444 1.363-.062 1.771-.076 5.22-.076 3.45 0 3.86.013 5.222.075 1.26.058 1.944.268 2.399.445.56.207 1.069.538 1.485.967.43.417.76.924.967 1.485.177.456.387 1.14.444 2.4.063 1.362.076 1.77.076 5.22 0 3.45-.013 3.859-.075 5.221-.058 1.26-.268 1.944-.445 2.4a4.005 4.005 0 01-.967 1.485 4 4 0 01-1.485.966c-.455.177-1.14.388-2.4.445-1.362.062-1.77.075-5.22.075-3.45 0-3.859-.013-5.22-.075-1.26-.057-1.945-.268-2.4-.445a4.278 4.278 0 01-2.452-2.452c-.177-.455-.387-1.139-.445-2.399-.062-1.362-.075-1.77-.075-5.22 0-3.45.013-3.86.075-5.222.057-1.26.268-1.943.445-2.399zm10.072 14.254a6.634 6.634 0 100-13.268 6.634 6.634 0 000 13.268zm-6.897-11.98a1.55 1.55 0 100-3.101 1.55 1.55 0 000 3.1z"/><path d="M22.62 0c12.316 0 22.304 9.987 22.304 22.303S34.936 44.607 22.62 44.607C10.304 44.607.317 34.619.317 22.303.317 9.987 10.304 0 22.62 0zM9.89 27.584c.063 1.363.28 2.294.596 3.108a6.549 6.549 0 003.745 3.746c.815.316 1.746.533 3.109.595 1.366.063 1.802.078 5.28.078 3.479 0 3.915-.015 5.28-.078 1.364-.062 2.295-.279 3.109-.595a6.274 6.274 0 002.269-1.477 6.276 6.276 0 001.477-2.269c.316-.814.533-1.745.595-3.108.063-1.366.077-1.802.077-5.28 0-3.479-.014-3.915-.077-5.28-.062-1.364-.278-2.295-.595-3.11a6.274 6.274 0 00-1.477-2.268 6.273 6.273 0 00-2.269-1.477c-.814-.317-1.745-.533-3.108-.595-1.366-.063-1.802-.078-5.28-.078-3.479 0-3.915.015-5.28.078-1.364.062-2.295.278-3.11.595a6.279 6.279 0 00-2.268 1.477 6.275 6.275 0 00-1.477 2.268c-.317.815-.533 1.746-.596 3.11-.062 1.365-.077 1.801-.077 5.28 0 3.478.015 3.914.078 5.28z"/>
      </symbol>

      <symbol viewBox="0 0 21 12" id="link-to">
      <path d="M10.59 1.41L14.17 5H0v2h14.17l-3.59 3.59L12 12l6-6-6-6-1.41 1.41zM19 0v12h2V0h-2z"/>
      </symbol>

      <symbol viewBox="0 0 16 16" id="next">
<path d="M8 0C3.5 0 0 3.5 0 8s3.5 8 8 8 8-3.5 8-8-3.5-8-8-8zm1 12v-2H3V6h6V4l5 4-5 4z"/>
      </symbol>

      <symbol viewBox="0 0 16 16" id="prev">
<path d="M8 0C3.5 0 0 3.5 0 8s3.5 8 8 8 8-3.5 8-8-3.5-8-8-8zm5 10H7v2L2 8l5-4v2h6v4z"/>
      </symbol>

      <symbol viewBox="0 0 45 45" id="vk">
      <path d="M22.5 0C10.074 0 0 10.074 0 22.5S10.074 45 22.5 45 45 34.926 45 22.5 34.926 0 22.5 0zm11.413 24.933c1.049 1.025 2.158 1.989 3.1 3.119.417.5.81 1.017 1.11 1.598.427.83.04 1.739-.701 1.788l-4.61-.001c-1.19.098-2.138-.382-2.937-1.196-.637-.648-1.229-1.341-1.843-2.012a4.29 4.29 0 00-.83-.738c-.628-.41-1.174-.284-1.534.373-.367.668-.451 1.408-.486 2.151-.05 1.087-.378 1.371-1.468 1.422-2.33.11-4.542-.244-6.597-1.419-1.813-1.036-3.216-2.499-4.439-4.155-2.38-3.228-4.204-6.77-5.843-10.415-.368-.821-.099-1.26.807-1.277 1.504-.03 3.009-.026 4.513-.002.613.01 1.018.36 1.253.938.813 2 1.81 3.904 3.059 5.669.332.47.672.938 1.156 1.27.534.367.94.245 1.193-.35.16-.38.23-.785.265-1.19.12-1.392.134-2.782-.073-4.167-.129-.867-.616-1.427-1.48-1.59-.44-.084-.376-.247-.162-.498.372-.435.72-.704 1.415-.704h5.208c.821.16 1.005.529 1.117 1.356l.004 5.787c-.01.32.16 1.269.735 1.478.46.152.765-.217 1.04-.509 1.249-1.325 2.139-2.89 2.936-4.508.351-.714.655-1.453.95-2.194.218-.547.56-.816 1.177-.807l5.015.006c.148 0 .298.001.444.027.846.144 1.077.508.816 1.332-.412 1.296-1.212 2.375-1.993 3.457-.838 1.158-1.732 2.276-2.561 3.44-.763 1.063-.702 1.598.244 2.521z"/>
      </symbol>


    </svg>


